PathFileType	4	(X/Y/Z)	HSS_squat5.trc
DataRate	CameraRate	NumFrames	NumMarkers	Units	OrigDataRate	OrigDataStartFrame	OrigNumFrames
120.0	120.0	4	44	mm	120.0	613	980
Frame#	Time		R.Shoulder		Offset		L.Shoulder		R.Elbow		R.Wrist.Radial		R.Wrist		R.Hand		L.Elbow		L.Wrist.Radial		L.Wrist		L.Hand		R.Hip		V.Sacral		L.PSIS		L.Hip		R.Thigh.Upper		R.Thigh.Front		R.Thigh.Rear		X.Shell.Lower.Thigh.Right		R.Knee.Lateral		R.Shank.Upper		R.Shank.Front		R.Shank.Rear		X.Shell.Lower.Shank.Right		R.Ankle.Lateral		R.Heel		R.Toe		L.Thigh.Upper		L.Thigh.Front		L.Thigh.Rear		X.Shell.Lower.Thigh.Left		L.Knee.Lateral		L.Shank.Upper		L.Shank.Front		L.Shank.Rear		X.Shell.Lower.Shank.Left		L.Ankle.Lateral		L.Heel		L.Toe		R.Troc		L.Troc		R.PSIS		L.ASIS		R.ASIS
			X1	Y1	Z1	X2	Y2	Z2	X3	Y3	Z3	X4	Y4	Z4	X5	Y5	Z5	X6	Y6	Z6	X7	Y7	Z7	X8	Y8	Z8	X9	Y9	Z9	X10	Y10	Z10	X11	Y11	Z11	X12	Y12	Z12	X13	Y13	Z13	X14	Y14	Z14	X15	Y15	Z15	X16	Y16	Z16	X17	Y17	Z17	X18	Y18	Z18	X19	Y19	Z19	X20	Y20	Z20	X21	Y21	Z21	X22	Y22	Z22	X23	Y23	Z23	X24	Y24	Z24	X25	Y25	Z25	X26	Y26	Z26	X27	Y27	Z27	X28	Y28	Z28	X29	Y29	Z29	X30	Y30	Z30	X31	Y31	Z31	X32	Y32	Z32	X33	Y33	Z33	X34	Y34	Z34	X35	Y35	Z35	X36	Y36	Z36	X37	Y37	Z37	X38	Y38	Z38	X39	Y39	Z39	X40	Y40	Z40	X41	Y41	Z41	X42	Y42	Z42	X43	Y43	Z43	X44	Y44	Z44

613	5.10000	116.51424	852.23297	-244.07997	-170.80901	811.85260	-119.65868	-187.16519	861.62805	-272.45529	298.08569	691.40125	-489.23877	79.67797	761.15710	-630.42065	126.22269	792.58063	-680.72205	42.39556	804.20331	-708.44928	-341.90863	729.10052	-551.38947	-97.32053	750.84436	-655.51428	-128.17375	799.72070	-697.37018	-39.35732	789.92395	-703.99481	91.69742	521.43280	27.77538	-59.30844	516.14594	161.79628	-95.83035	526.86536	153.88588	-207.00264	515.41138	31.88841	171.94319	492.81628	-105.91639	158.97356	524.90833	-145.62056	197.27098	476.49600	-140.42421	183.34117	502.36615	-176.47543	203.53479	437.27359	-280.30103	249.09381	324.50375	-252.42046	226.53667	272.94293	-258.19971	234.29291	306.29480	-208.17639	226.29659	259.90079	-210.65172	183.23534	72.58813	-92.87084	132.95065	35.16834	-44.42884	201.95320	34.83504	-235.02560	-254.47008	484.28793	-123.41401	-238.34665	507.20224	-173.86366	-277.10547	459.30670	-158.90744	-267.90417	487.51691	-192.62059	-256.58374	421.55075	-306.46625	-289.84100	272.71957	-222.67982	-271.84393	239.14429	-235.06393	-276.71848	253.89670	-176.21486	-277.76813	215.75304	-182.27997	-233.25844	72.31090	-108.91795	-184.91554	38.95522	-46.18703	-241.48642	31.99081	-242.41646	123.34631	487.43039	58.08915	-245.64709	468.94531	60.12489	-19.17394	527.45062	155.92819	-166.68716	480.34702	-15.88815	61.82151	490.01135	-12.39812
614	5.10833	116.41411	850.45087	-243.87213	-170.96855	810.35559	-119.36897	-187.31833	859.85596	-272.16040	297.93103	689.21851	-489.09314	79.93912	759.03223	-629.92871	126.15675	790.26813	-680.71320	42.36954	802.21033	-708.47668	-341.85797	726.66266	-551.14594	-97.32977	748.79266	-655.23096	-128.34050	797.42633	-697.09741	-39.33382	787.82092	-703.91486	91.60699	520.13281	28.22837	-59.35165	514.43567	162.26965	-95.94124	525.31128	154.61043	-207.14787	514.15424	32.57236	171.42349	491.94180	-105.85965	158.63936	524.30188	-145.27000	197.00978	475.94531	-140.31992	182.97318	501.89188	-176.18857	203.36568	437.33698	-280.18161	248.92331	324.58228	-252.36171	226.38414	273.02454	-258.20029	234.13127	306.36633	-208.18353	226.11334	259.94598	-210.60764	183.19875	72.61024	-92.87930	132.94666	35.16833	-44.41182	201.91656	34.88667	-235.02319	-254.62746	483.78101	-122.91528	-238.64690	506.81787	-173.10872	-277.36575	458.97986	-158.50169	-268.07141	487.27777	-192.04733	-257.01807	421.74835	-305.99094	-290.07785	272.78610	-222.50046	-272.11719	239.19339	-234.91362	-277.12341	253.90976	-175.94691	-277.99716	215.75237	-182.05719	-233.30278	72.28115	-108.92899	-184.95668	38.96327	-46.18947	-241.52611	32.02966	-242.42465	123.24026	486.03146	58.43922	-245.85434	467.65845	60.89025	-19.29061	525.85962	156.38406	-166.87044	479.07156	-15.22957	61.68589	488.81143	-12.04982
615	5.11667	116.29359	848.78992	-243.95863	-170.98903	808.93298	-119.17010	-187.39198	858.10449	-272.18622	297.63025	687.03918	-488.78989	80.19911	756.95276	-629.43414	126.13734	788.03284	-680.67426	42.42556	799.94629	-708.31830	-341.78815	724.33496	-550.81964	-96.94059	746.53265	-654.99249	-128.39215	795.19482	-696.81580	-39.30895	785.58649	-703.69922	91.56179	518.82971	28.58900	-59.32983	512.75592	162.62929	-95.88911	523.62421	155.05515	-207.27097	512.94781	33.04933	171.17747	491.25916	-105.65399	158.28006	523.80017	-144.97464	196.78052	475.47095	-140.03302	182.73592	501.40182	-175.84503	203.14819	437.34503	-280.11334	248.72719	324.65167	-252.35126	226.18773	273.11978	-258.23236	234.00882	306.42484	-208.19206	225.94893	260.00208	-210.59503	183.17004	72.62775	-92.89235	132.94705	35.16196	-44.40791	201.86842	34.88442	-235.05356	-254.89862	483.22516	-122.36358	-238.84561	506.41766	-172.51782	-277.65863	458.66962	-158.02856	-268.37921	487.05350	-191.50508	-257.37531	421.88626	-305.57367	-290.25427	272.82498	-222.34073	-272.32257	239.23938	-234.75749	-277.33163	253.94640	-175.73216	-278.19580	215.78175	-181.88667	-233.35159	72.24891	-108.90676	-185.00467	38.95675	-46.20200	-241.55241	32.01746	-242.42706	123.21461	484.59012	58.63841	-245.77277	466.34903	61.05635	-19.23328	524.19611	156.94328	-166.95401	478.21002	-14.97084	61.49389	487.65018	-11.73181
616	5.12500	116.19047	847.07263	-243.88747	-171.04951	807.71021	-119.01210	-187.53886	856.43951	-272.10800	297.45349	684.96161	-488.56628	80.45700	754.91888	-628.93878	126.09246	785.82855	-680.63574	42.32867	797.56409	-708.35333	-341.78473	722.17334	-550.50427	-97.34876	744.55048	-654.71814	-128.35916	792.99634	-696.58942	-39.45420	783.36285	-703.58057	91.46329	517.65137	29.11369	-59.32148	511.06326	163.23273	-95.89346	522.09955	155.60713	-207.30853	511.83987	33.80082	170.87665	490.65387	-105.25106	157.86317	523.29681	-144.62781	196.48245	475.05219	-139.81787	182.36476	501.01608	-175.60179	202.84135	437.34637	-280.07095	248.52013	324.70667	-252.39114	225.91592	273.15225	-258.20325	233.84999	306.49628	-208.24844	225.77216	260.04376	-210.60420	183.13365	72.65031	-92.87830	132.95068	35.15137	-44.38905	201.79654	34.91821	-235.06964	-255.00826	482.69571	-121.70881	-239.04164	506.06412	-171.97469	-277.94882	458.23169	-157.40117	-268.66299	486.77097	-190.79512	-257.65619	421.94153	-305.21075	-290.46667	272.86789	-222.16368	-272.53781	239.33293	-234.54700	-277.54706	253.99576	-175.52452	-278.35989	215.83289	-181.71428	-233.38503	72.21965	-108.91233	-185.02159	38.94857	-46.18805	-241.55013	32.01718	-242.42654	123.06815	483.28015	58.94528	-245.74527	465.12262	61.67620	-19.28899	522.58984	157.47061	-167.13655	477.29462	-14.52593	61.35041	486.65646	-11.38993
